<mxfile host="app.diagrams.net" modified="2022-04-23T10:21:01.227Z" agent="5.0 (Windows NT 10.0; Win64; x64) AppleWebKit/537.36 (KHTML, like Gecko) Chrome/100.0.4896.75 Safari/537.36 Edg/100.0.1185.36" etag="p1iz1LT8oBxk40QfZAST" version="17.4.6" type="github">
  <diagram id="zx4nmq-Gta-SITNTXSAZ" name="Page-1">
    <mxGraphModel dx="769" dy="429" grid="1" gridSize="10" guides="1" tooltips="1" connect="1" arrows="1" fold="1" page="1" pageScale="1" pageWidth="3300" pageHeight="4681" math="0" shadow="0">
      <root>
        <mxCell id="0" />
        <mxCell id="1" parent="0" />
        <mxCell id="rTuDsCQfSDogtTOp3jkm-57" value="" style="rounded=1;whiteSpace=wrap;html=1;dashed=1;fillColor=#f9f7ed;strokeColor=#36393d;" vertex="1" parent="1">
          <mxGeometry x="120" y="270" width="380" height="370" as="geometry" />
        </mxCell>
        <mxCell id="rTuDsCQfSDogtTOp3jkm-56" value="" style="rounded=1;whiteSpace=wrap;html=1;dashed=1;fillColor=#f9f7ed;strokeColor=#36393d;" vertex="1" parent="1">
          <mxGeometry x="120" y="50.5" width="380" height="179.5" as="geometry" />
        </mxCell>
        <mxCell id="rTuDsCQfSDogtTOp3jkm-6" style="edgeStyle=orthogonalEdgeStyle;rounded=0;orthogonalLoop=1;jettySize=auto;html=1;entryX=0;entryY=0.5;entryDx=0;entryDy=0;" edge="1" parent="1" source="rTuDsCQfSDogtTOp3jkm-1" target="rTuDsCQfSDogtTOp3jkm-4">
          <mxGeometry relative="1" as="geometry" />
        </mxCell>
        <mxCell id="rTuDsCQfSDogtTOp3jkm-1" value="" style="sketch=0;shadow=0;dashed=0;html=1;strokeColor=none;fillColor=#505050;labelPosition=center;verticalLabelPosition=bottom;verticalAlign=top;outlineConnect=0;align=center;shape=mxgraph.office.databases.database_mini_1;" vertex="1" parent="1">
          <mxGeometry x="150" y="118" width="55" height="50" as="geometry" />
        </mxCell>
        <mxCell id="rTuDsCQfSDogtTOp3jkm-2" value="Dataset 2" style="text;html=1;strokeColor=none;fillColor=none;align=center;verticalAlign=middle;whiteSpace=wrap;rounded=0;" vertex="1" parent="1">
          <mxGeometry x="147.5" y="88" width="60" height="30" as="geometry" />
        </mxCell>
        <mxCell id="rTuDsCQfSDogtTOp3jkm-5" value="" style="group" vertex="1" connectable="0" parent="1">
          <mxGeometry x="250" y="103" width="80" height="80" as="geometry" />
        </mxCell>
        <mxCell id="rTuDsCQfSDogtTOp3jkm-4" value="" style="whiteSpace=wrap;html=1;aspect=fixed;" vertex="1" parent="rTuDsCQfSDogtTOp3jkm-5">
          <mxGeometry width="80" height="80" as="geometry" />
        </mxCell>
        <mxCell id="rTuDsCQfSDogtTOp3jkm-3" value="" style="sketch=0;pointerEvents=1;shadow=0;dashed=0;html=1;strokeColor=none;fillColor=#505050;labelPosition=center;verticalLabelPosition=bottom;verticalAlign=top;outlineConnect=0;align=center;shape=mxgraph.office.concepts.settings_office_365;" vertex="1" parent="rTuDsCQfSDogtTOp3jkm-5">
          <mxGeometry x="16" y="15" width="48" height="48" as="geometry" />
        </mxCell>
        <mxCell id="rTuDsCQfSDogtTOp3jkm-7" value="Feature extractor" style="text;html=1;strokeColor=none;fillColor=none;align=center;verticalAlign=middle;whiteSpace=wrap;rounded=0;" vertex="1" parent="1">
          <mxGeometry x="260" y="63" width="60" height="30" as="geometry" />
        </mxCell>
        <mxCell id="rTuDsCQfSDogtTOp3jkm-9" value="" style="rounded=0;whiteSpace=wrap;html=1;fillColor=#bac8d3;strokeColor=#23445d;" vertex="1" parent="1">
          <mxGeometry x="371" y="103" width="30" height="80" as="geometry" />
        </mxCell>
        <mxCell id="rTuDsCQfSDogtTOp3jkm-10" style="edgeStyle=orthogonalEdgeStyle;rounded=0;orthogonalLoop=1;jettySize=auto;html=1;exitX=1;exitY=0.5;exitDx=0;exitDy=0;entryX=0;entryY=0.5;entryDx=0;entryDy=0;" edge="1" parent="1" source="rTuDsCQfSDogtTOp3jkm-4" target="rTuDsCQfSDogtTOp3jkm-9">
          <mxGeometry relative="1" as="geometry" />
        </mxCell>
        <mxCell id="rTuDsCQfSDogtTOp3jkm-11" value="Classifier" style="text;html=1;strokeColor=none;fillColor=none;align=center;verticalAlign=middle;whiteSpace=wrap;rounded=0;" vertex="1" parent="1">
          <mxGeometry x="356" y="63" width="60" height="30" as="geometry" />
        </mxCell>
        <mxCell id="rTuDsCQfSDogtTOp3jkm-16" style="edgeStyle=orthogonalEdgeStyle;rounded=0;orthogonalLoop=1;jettySize=auto;html=1;endArrow=none;endFill=0;startArrow=classic;startFill=1;entryX=0.967;entryY=0.063;entryDx=0;entryDy=0;entryPerimeter=0;" edge="1" parent="1" source="rTuDsCQfSDogtTOp3jkm-12" target="rTuDsCQfSDogtTOp3jkm-9">
          <mxGeometry relative="1" as="geometry">
            <mxPoint x="410" y="108" as="targetPoint" />
          </mxGeometry>
        </mxCell>
        <mxCell id="rTuDsCQfSDogtTOp3jkm-12" value="" style="sketch=0;pointerEvents=1;shadow=0;dashed=0;html=1;strokeColor=none;fillColor=#505050;labelPosition=center;verticalLabelPosition=bottom;verticalAlign=top;outlineConnect=0;align=center;shape=mxgraph.office.users.user;" vertex="1" parent="1">
          <mxGeometry x="430" y="103" width="10" height="10" as="geometry" />
        </mxCell>
        <mxCell id="rTuDsCQfSDogtTOp3jkm-18" style="edgeStyle=orthogonalEdgeStyle;rounded=0;orthogonalLoop=1;jettySize=auto;html=1;entryX=0.967;entryY=0.313;entryDx=0;entryDy=0;entryPerimeter=0;startArrow=classic;startFill=1;endArrow=none;endFill=0;" edge="1" parent="1" source="rTuDsCQfSDogtTOp3jkm-13" target="rTuDsCQfSDogtTOp3jkm-9">
          <mxGeometry relative="1" as="geometry" />
        </mxCell>
        <mxCell id="rTuDsCQfSDogtTOp3jkm-13" value="" style="sketch=0;pointerEvents=1;shadow=0;dashed=0;html=1;strokeColor=none;fillColor=#505050;labelPosition=center;verticalLabelPosition=bottom;verticalAlign=top;outlineConnect=0;align=center;shape=mxgraph.office.users.user;" vertex="1" parent="1">
          <mxGeometry x="430" y="123" width="10" height="10" as="geometry" />
        </mxCell>
        <mxCell id="rTuDsCQfSDogtTOp3jkm-19" style="edgeStyle=orthogonalEdgeStyle;rounded=0;orthogonalLoop=1;jettySize=auto;html=1;entryX=0.967;entryY=0.563;entryDx=0;entryDy=0;entryPerimeter=0;startArrow=classic;startFill=1;endArrow=none;endFill=0;" edge="1" parent="1" source="rTuDsCQfSDogtTOp3jkm-14" target="rTuDsCQfSDogtTOp3jkm-9">
          <mxGeometry relative="1" as="geometry" />
        </mxCell>
        <mxCell id="rTuDsCQfSDogtTOp3jkm-14" value="" style="sketch=0;pointerEvents=1;shadow=0;dashed=0;html=1;strokeColor=none;fillColor=#505050;labelPosition=center;verticalLabelPosition=bottom;verticalAlign=top;outlineConnect=0;align=center;shape=mxgraph.office.users.user;" vertex="1" parent="1">
          <mxGeometry x="430" y="143" width="10" height="10" as="geometry" />
        </mxCell>
        <mxCell id="rTuDsCQfSDogtTOp3jkm-20" style="edgeStyle=orthogonalEdgeStyle;rounded=0;orthogonalLoop=1;jettySize=auto;html=1;entryX=0.967;entryY=0.938;entryDx=0;entryDy=0;entryPerimeter=0;startArrow=classic;startFill=1;endArrow=none;endFill=0;" edge="1" parent="1" source="rTuDsCQfSDogtTOp3jkm-15" target="rTuDsCQfSDogtTOp3jkm-9">
          <mxGeometry relative="1" as="geometry" />
        </mxCell>
        <mxCell id="rTuDsCQfSDogtTOp3jkm-15" value="" style="sketch=0;pointerEvents=1;shadow=0;dashed=0;html=1;strokeColor=none;fillColor=#505050;labelPosition=center;verticalLabelPosition=bottom;verticalAlign=top;outlineConnect=0;align=center;shape=mxgraph.office.users.user;" vertex="1" parent="1">
          <mxGeometry x="430" y="173" width="10" height="10" as="geometry" />
        </mxCell>
        <mxCell id="rTuDsCQfSDogtTOp3jkm-28" style="edgeStyle=orthogonalEdgeStyle;rounded=0;orthogonalLoop=1;jettySize=auto;html=1;startArrow=none;startFill=0;endArrow=classic;endFill=1;" edge="1" parent="1" source="rTuDsCQfSDogtTOp3jkm-22" target="rTuDsCQfSDogtTOp3jkm-25">
          <mxGeometry relative="1" as="geometry" />
        </mxCell>
        <mxCell id="rTuDsCQfSDogtTOp3jkm-22" value="" style="sketch=0;shadow=0;dashed=0;html=1;strokeColor=none;fillColor=#505050;labelPosition=center;verticalLabelPosition=bottom;verticalAlign=top;outlineConnect=0;align=center;shape=mxgraph.office.databases.database_mini_2;" vertex="1" parent="1">
          <mxGeometry x="147.5" y="325" width="60" height="90" as="geometry" />
        </mxCell>
        <mxCell id="rTuDsCQfSDogtTOp3jkm-23" value="Dataset 1" style="text;html=1;strokeColor=none;fillColor=none;align=center;verticalAlign=middle;whiteSpace=wrap;rounded=0;" vertex="1" parent="1">
          <mxGeometry x="147.5" y="295" width="60" height="30" as="geometry" />
        </mxCell>
        <mxCell id="rTuDsCQfSDogtTOp3jkm-24" value="" style="group" vertex="1" connectable="0" parent="1">
          <mxGeometry x="250" y="330" width="80" height="80" as="geometry" />
        </mxCell>
        <mxCell id="rTuDsCQfSDogtTOp3jkm-25" value="" style="whiteSpace=wrap;html=1;aspect=fixed;" vertex="1" parent="rTuDsCQfSDogtTOp3jkm-24">
          <mxGeometry width="80" height="80" as="geometry" />
        </mxCell>
        <mxCell id="rTuDsCQfSDogtTOp3jkm-26" value="" style="sketch=0;pointerEvents=1;shadow=0;dashed=0;html=1;strokeColor=none;fillColor=#505050;labelPosition=center;verticalLabelPosition=bottom;verticalAlign=top;outlineConnect=0;align=center;shape=mxgraph.office.concepts.settings_office_365;" vertex="1" parent="rTuDsCQfSDogtTOp3jkm-24">
          <mxGeometry x="16" y="15" width="48" height="48" as="geometry" />
        </mxCell>
        <mxCell id="rTuDsCQfSDogtTOp3jkm-27" value="Feature extractor" style="text;html=1;strokeColor=none;fillColor=none;align=center;verticalAlign=middle;whiteSpace=wrap;rounded=0;" vertex="1" parent="1">
          <mxGeometry x="260" y="290" width="60" height="30" as="geometry" />
        </mxCell>
        <mxCell id="rTuDsCQfSDogtTOp3jkm-35" style="edgeStyle=orthogonalEdgeStyle;rounded=0;orthogonalLoop=1;jettySize=auto;html=1;startArrow=none;startFill=0;endArrow=classic;endFill=1;entryX=-0.013;entryY=0.506;entryDx=0;entryDy=0;entryPerimeter=0;" edge="1" parent="1" source="rTuDsCQfSDogtTOp3jkm-29" target="rTuDsCQfSDogtTOp3jkm-36">
          <mxGeometry relative="1" as="geometry">
            <mxPoint x="430" y="370.0000000000001" as="targetPoint" />
          </mxGeometry>
        </mxCell>
        <mxCell id="rTuDsCQfSDogtTOp3jkm-29" value="" style="rounded=0;whiteSpace=wrap;html=1;fillColor=#fad9d5;strokeColor=#ae4132;" vertex="1" parent="1">
          <mxGeometry x="371" y="330" width="30" height="80" as="geometry" />
        </mxCell>
        <mxCell id="rTuDsCQfSDogtTOp3jkm-32" style="edgeStyle=orthogonalEdgeStyle;rounded=0;orthogonalLoop=1;jettySize=auto;html=1;entryX=0;entryY=0.5;entryDx=0;entryDy=0;startArrow=none;startFill=0;endArrow=classic;endFill=1;" edge="1" parent="1" source="rTuDsCQfSDogtTOp3jkm-25" target="rTuDsCQfSDogtTOp3jkm-29">
          <mxGeometry relative="1" as="geometry" />
        </mxCell>
        <mxCell id="rTuDsCQfSDogtTOp3jkm-33" value="Self supervision task" style="text;html=1;strokeColor=none;fillColor=none;align=center;verticalAlign=middle;whiteSpace=wrap;rounded=0;" vertex="1" parent="1">
          <mxGeometry x="356" y="290" width="60" height="30" as="geometry" />
        </mxCell>
        <mxCell id="rTuDsCQfSDogtTOp3jkm-36" value="Self Supervision Scores" style="text;html=1;strokeColor=none;fillColor=none;align=center;verticalAlign=middle;whiteSpace=wrap;rounded=0;" vertex="1" parent="1">
          <mxGeometry x="430" y="355" width="60" height="30" as="geometry" />
        </mxCell>
        <mxCell id="rTuDsCQfSDogtTOp3jkm-37" value="" style="group" vertex="1" connectable="0" parent="1">
          <mxGeometry x="250" y="520" width="80" height="80" as="geometry" />
        </mxCell>
        <mxCell id="rTuDsCQfSDogtTOp3jkm-38" value="" style="whiteSpace=wrap;html=1;aspect=fixed;" vertex="1" parent="rTuDsCQfSDogtTOp3jkm-37">
          <mxGeometry width="80" height="80" as="geometry" />
        </mxCell>
        <mxCell id="rTuDsCQfSDogtTOp3jkm-39" value="" style="sketch=0;pointerEvents=1;shadow=0;dashed=0;html=1;strokeColor=none;fillColor=#505050;labelPosition=center;verticalLabelPosition=bottom;verticalAlign=top;outlineConnect=0;align=center;shape=mxgraph.office.concepts.settings_office_365;" vertex="1" parent="rTuDsCQfSDogtTOp3jkm-37">
          <mxGeometry x="16" y="15" width="48" height="48" as="geometry" />
        </mxCell>
        <mxCell id="rTuDsCQfSDogtTOp3jkm-40" value="Pre-Trained Feature extractor" style="text;html=1;strokeColor=none;fillColor=none;align=center;verticalAlign=middle;whiteSpace=wrap;rounded=0;" vertex="1" parent="1">
          <mxGeometry x="255" y="480" width="70" height="40" as="geometry" />
        </mxCell>
        <mxCell id="rTuDsCQfSDogtTOp3jkm-41" style="edgeStyle=orthogonalEdgeStyle;rounded=0;orthogonalLoop=1;jettySize=auto;html=1;startArrow=none;startFill=0;endArrow=classic;endFill=1;entryX=0.5;entryY=0;entryDx=0;entryDy=0;" edge="1" parent="1" source="rTuDsCQfSDogtTOp3jkm-25" target="rTuDsCQfSDogtTOp3jkm-40">
          <mxGeometry relative="1" as="geometry">
            <mxPoint x="320" y="450" as="targetPoint" />
          </mxGeometry>
        </mxCell>
        <mxCell id="rTuDsCQfSDogtTOp3jkm-44" style="edgeStyle=orthogonalEdgeStyle;rounded=0;orthogonalLoop=1;jettySize=auto;html=1;entryX=0;entryY=0.5;entryDx=0;entryDy=0;startArrow=none;startFill=0;endArrow=classic;endFill=1;" edge="1" parent="1" source="rTuDsCQfSDogtTOp3jkm-42" target="rTuDsCQfSDogtTOp3jkm-38">
          <mxGeometry relative="1" as="geometry" />
        </mxCell>
        <mxCell id="rTuDsCQfSDogtTOp3jkm-42" value="" style="sketch=0;shadow=0;dashed=0;html=1;strokeColor=none;fillColor=#505050;labelPosition=center;verticalLabelPosition=bottom;verticalAlign=top;outlineConnect=0;align=center;shape=mxgraph.office.databases.database_mini_1;" vertex="1" parent="1">
          <mxGeometry x="150" y="535" width="55" height="50" as="geometry" />
        </mxCell>
        <mxCell id="rTuDsCQfSDogtTOp3jkm-43" value="Dataset 2" style="text;html=1;strokeColor=none;fillColor=none;align=center;verticalAlign=middle;whiteSpace=wrap;rounded=0;" vertex="1" parent="1">
          <mxGeometry x="147.5" y="505" width="60" height="30" as="geometry" />
        </mxCell>
        <mxCell id="rTuDsCQfSDogtTOp3jkm-45" value="" style="rounded=0;whiteSpace=wrap;html=1;fillColor=#bac8d3;strokeColor=#23445d;" vertex="1" parent="1">
          <mxGeometry x="371" y="520" width="30" height="80" as="geometry" />
        </mxCell>
        <mxCell id="rTuDsCQfSDogtTOp3jkm-46" value="Classifier" style="text;html=1;strokeColor=none;fillColor=none;align=center;verticalAlign=middle;whiteSpace=wrap;rounded=0;" vertex="1" parent="1">
          <mxGeometry x="356" y="480" width="60" height="30" as="geometry" />
        </mxCell>
        <mxCell id="rTuDsCQfSDogtTOp3jkm-47" style="edgeStyle=orthogonalEdgeStyle;rounded=0;orthogonalLoop=1;jettySize=auto;html=1;endArrow=none;endFill=0;startArrow=classic;startFill=1;entryX=0.967;entryY=0.063;entryDx=0;entryDy=0;entryPerimeter=0;" edge="1" parent="1" source="rTuDsCQfSDogtTOp3jkm-48" target="rTuDsCQfSDogtTOp3jkm-45">
          <mxGeometry relative="1" as="geometry">
            <mxPoint x="410" y="525" as="targetPoint" />
          </mxGeometry>
        </mxCell>
        <mxCell id="rTuDsCQfSDogtTOp3jkm-48" value="" style="sketch=0;pointerEvents=1;shadow=0;dashed=0;html=1;strokeColor=none;fillColor=#505050;labelPosition=center;verticalLabelPosition=bottom;verticalAlign=top;outlineConnect=0;align=center;shape=mxgraph.office.users.user;" vertex="1" parent="1">
          <mxGeometry x="430" y="520" width="10" height="10" as="geometry" />
        </mxCell>
        <mxCell id="rTuDsCQfSDogtTOp3jkm-49" style="edgeStyle=orthogonalEdgeStyle;rounded=0;orthogonalLoop=1;jettySize=auto;html=1;entryX=0.967;entryY=0.313;entryDx=0;entryDy=0;entryPerimeter=0;startArrow=classic;startFill=1;endArrow=none;endFill=0;" edge="1" parent="1" source="rTuDsCQfSDogtTOp3jkm-50" target="rTuDsCQfSDogtTOp3jkm-45">
          <mxGeometry relative="1" as="geometry" />
        </mxCell>
        <mxCell id="rTuDsCQfSDogtTOp3jkm-50" value="" style="sketch=0;pointerEvents=1;shadow=0;dashed=0;html=1;strokeColor=none;fillColor=#505050;labelPosition=center;verticalLabelPosition=bottom;verticalAlign=top;outlineConnect=0;align=center;shape=mxgraph.office.users.user;" vertex="1" parent="1">
          <mxGeometry x="430" y="540" width="10" height="10" as="geometry" />
        </mxCell>
        <mxCell id="rTuDsCQfSDogtTOp3jkm-51" style="edgeStyle=orthogonalEdgeStyle;rounded=0;orthogonalLoop=1;jettySize=auto;html=1;entryX=0.967;entryY=0.563;entryDx=0;entryDy=0;entryPerimeter=0;startArrow=classic;startFill=1;endArrow=none;endFill=0;" edge="1" parent="1" source="rTuDsCQfSDogtTOp3jkm-52" target="rTuDsCQfSDogtTOp3jkm-45">
          <mxGeometry relative="1" as="geometry" />
        </mxCell>
        <mxCell id="rTuDsCQfSDogtTOp3jkm-52" value="" style="sketch=0;pointerEvents=1;shadow=0;dashed=0;html=1;strokeColor=none;fillColor=#505050;labelPosition=center;verticalLabelPosition=bottom;verticalAlign=top;outlineConnect=0;align=center;shape=mxgraph.office.users.user;" vertex="1" parent="1">
          <mxGeometry x="430" y="560" width="10" height="10" as="geometry" />
        </mxCell>
        <mxCell id="rTuDsCQfSDogtTOp3jkm-53" style="edgeStyle=orthogonalEdgeStyle;rounded=0;orthogonalLoop=1;jettySize=auto;html=1;entryX=0.967;entryY=0.938;entryDx=0;entryDy=0;entryPerimeter=0;startArrow=classic;startFill=1;endArrow=none;endFill=0;" edge="1" parent="1" source="rTuDsCQfSDogtTOp3jkm-54" target="rTuDsCQfSDogtTOp3jkm-45">
          <mxGeometry relative="1" as="geometry" />
        </mxCell>
        <mxCell id="rTuDsCQfSDogtTOp3jkm-54" value="" style="sketch=0;pointerEvents=1;shadow=0;dashed=0;html=1;strokeColor=none;fillColor=#505050;labelPosition=center;verticalLabelPosition=bottom;verticalAlign=top;outlineConnect=0;align=center;shape=mxgraph.office.users.user;" vertex="1" parent="1">
          <mxGeometry x="430" y="590" width="10" height="10" as="geometry" />
        </mxCell>
        <mxCell id="rTuDsCQfSDogtTOp3jkm-55" style="edgeStyle=orthogonalEdgeStyle;rounded=0;orthogonalLoop=1;jettySize=auto;html=1;entryX=0;entryY=0.5;entryDx=0;entryDy=0;startArrow=none;startFill=0;endArrow=classic;endFill=1;" edge="1" parent="1" source="rTuDsCQfSDogtTOp3jkm-38" target="rTuDsCQfSDogtTOp3jkm-45">
          <mxGeometry relative="1" as="geometry" />
        </mxCell>
        <mxCell id="rTuDsCQfSDogtTOp3jkm-58" value="Training Process of a supervised model" style="text;html=1;strokeColor=none;fillColor=none;align=center;verticalAlign=middle;whiteSpace=wrap;rounded=0;dashed=1;" vertex="1" parent="1">
          <mxGeometry x="177.5" y="200" width="225" height="30" as="geometry" />
        </mxCell>
        <mxCell id="rTuDsCQfSDogtTOp3jkm-59" value="Training Process of a self-supervised model" style="text;html=1;strokeColor=none;fillColor=none;align=center;verticalAlign=middle;whiteSpace=wrap;rounded=0;dashed=1;" vertex="1" parent="1">
          <mxGeometry x="165" y="610" width="250" height="30" as="geometry" />
        </mxCell>
      </root>
    </mxGraphModel>
  </diagram>
</mxfile>
